# xmcd
#
# Track frame offsets:
#	150
#	17707
#	39544
#	64089
#	81079
#	98863
#	120273
#	139074
#	157961
#	183903
#	198750
#	218846
#	238415
#	254700
#	276632
#	292694
#
# Disc length: 4197 seconds
#
# Revision: 1
# Processed by: cddbd v1.5.2PL0 Copyright (c) Steve Scherf et al.
# Submitted via: EasyCDDAExtractor 11.0.0.1
#
DISCID=e4106310
DTITLE=ACTIVE MEMBER - ΣΤΟΝ ΚΑΙΡΟ ΤΟΥ ΑΛΛΟΚΟΤΟΥ ΦΟΒΟΥ
DYEAR=2001
DGENRE=ROCK
TTITLE0=INTRO ACTIVE MEMBER ΣΤΟΝ ΚΑΙΡΟ ΤΟΥ ΑΛΛΟΚΟΤΟΥ ΦΟΒΟΥ
TTITLE1=ΨΕΜΑ ΜΟΥ
TTITLE2=ΘΑ ΗΘΕΛΑ ΝΑ ΗΜΟΥΝ 
TTITLE3=ΕΠΙΣΤΡΕΦΕΙ Η ΣΙΩΠΗ
TTITLE4=ΠΡΕΜΙΕΡΑ
TTITLE5=ΘΕΣ ΔΕ ΘΕΣ
TTITLE6=ΜΕΙΝΕ ΕΚΕΙ
TTITLE7=ΓΗΤΕΜΕΝΟ ΠΑΙΔΙ
TTITLE8=ΚΑΛΑ ΚΡΑΣΙΑ
TTITLE9=ΠΡΟΤΑΓΜΑ
TTITLE10=Η ΠΙΟ ΜΕΓΑΛΗ ΑΝΟΗΣΙΑ
TTITLE11=ΣΤΟΝ ΚΑΙΡΟ ΤΟΥ ΑΛΛΟΚΟΤΟΥ ΦΟΒΟΥ
TTITLE12=ΤΡΑΓΟΥΔΑ ΚΑΙ ΓΕΛΑ
TTITLE13=ΠΟΥ ΜΕ ΠΑΣ
TTITLE14=ΒΛΑΚΟΣΤΡΩΤΟ
TTITLE15=ΝΑ ΜΕΙΝΕΙ ΚΑΤΙ
EXTD=
EXTT0=
EXTT1=
EXTT2=
EXTT3=
EXTT4=
EXTT5=
EXTT6=
EXTT7=
EXTT8=
EXTT9=
EXTT10=
EXTT11=
EXTT12=
EXTT13=
EXTT14=
EXTT15=
PLAYORDER=
